<svg width="100" height="100" viewBox="0 0 100 100" xmlns="http://www.w3.org/2000/svg">
  <defs>
    <linearGradient id="handGradient" x1="0%" y1="0%" x2="100%" y2="100%">
      <stop offset="0%" style="stop-color:#6E9ADF;stop-opacity:1" />
      <stop offset="100%" style="stop-color:#4A90E2;stop-opacity:1" />
    </linearGradient>
  </defs>
  
  <!-- Stylized Hand -->
  <path fill="url(#handGradient)" d="M25,90 C15,80 15,60 30,50 C40,45 50,50 60,55 C70,50 80,45 90,50 C105,60 105,80 95,90 Z" transform="rotate(10 50 70)"/>

  <!-- Red Heart -->
  <path fill="#E53935" d="M50,35 C40,20 15,25 15,45 C15,65 50,80 50,80 C50,80 85,65 85,45 C85,25 60,20 50,35 Z"/>

</svg>
